<svg xmlns="http://www.w3.org/2000/svg" version="1.1" xmlns:xlink="http://www.w3.org/1999/xlink" xmlns:svgjs="http://svgjs.com/svgjs" width="512" height="512"><svg version="1.1" id="SvgjsSvg1000" xmlns="http://www.w3.org/2000/svg" xmlns:xlink="http://www.w3.org/1999/xlink" x="0px" y="0px" viewBox="0 0 512 512" style="enable-background:new 0 0 512 512;" xml:space="preserve">
<g>
	<g>
		<g>
			<path d="M198.659,112.959c9.491,3.657,9.486,17.143-0.001,20.801c-10.365,3.995-15.529,15.636-11.534,26.001
				c3.997,10.369,15.64,15.528,26.001,11.534c43.714-16.848,43.697-79.034,0-95.872c-9.488-3.658-9.49-17.145-0.001-20.801
				c10.365-3.995,15.532-15.635,11.537-26.001c-3.995-10.367-15.636-15.532-26-11.537
				C154.941,33.928,154.959,96.116,198.659,112.959z"></path>
			<path d="M298.878,112.959c9.49,3.657,9.484,17.143-0.001,20.801c-10.365,3.995-15.529,15.635-11.534,26.001
				c3.996,10.368,15.639,15.528,26.001,11.534c43.712-16.846,43.697-79.037,0-95.872c-9.488-3.658-9.49-17.146-0.001-20.801
				c10.365-3.995,15.53-15.635,11.537-26.001c-3.995-10.364-15.631-15.528-26.002-11.537
				C255.158,33.932,255.177,96.114,298.878,112.959z"></path>
			<path d="M200.332,435.924c11.108,0,20.114-9.006,20.114-20.114s-9.005-20.114-20.114-20.114
				c-11.524,0-20.899-9.376-20.899-20.899v-78.578c0-11.108-9.005-20.114-20.114-20.114c-11.108,0-20.114,9.005-20.114,20.114
				v78.578C139.206,408.503,166.627,435.924,200.332,435.924z"></path>
			<path d="M491.886,399.48v-0.001c11.108,0,20.114-9.005,20.114-20.114V268.76c0-11.108-9.005-20.114-20.114-20.114h-58.75V235.88
				c0-11.108-9.006-20.114-20.114-20.114H98.977c-11.108,0-20.114,9.006-20.114,20.114v138.919c0,31.208,11.835,59.702,31.247,81.24
				H20.114C9.005,456.039,0,465.044,0,476.153s9.005,20.114,20.114,20.114c19.176,0,449.994,0,471.773,0
				c11.108,0,20.114-9.006,20.114-20.114s-9.005-20.114-20.114-20.114h-89.997c14.153-15.702,24.278-35.104,28.725-56.559H491.886z
				 M433.136,288.874h38.637v70.377h-38.637V288.874z M392.909,374.798c0,44.796-36.444,81.24-81.24,81.24H200.332
				c-44.796,0-81.24-36.444-81.24-81.24V255.992h273.817C392.909,269.593,392.909,362.351,392.909,374.798z"></path>
		</g>
	</g>
</g>
<g>
</g>
<g>
</g>
<g>
</g>
<g>
</g>
<g>
</g>
<g>
</g>
<g>
</g>
<g>
</g>
<g>
</g>
<g>
</g>
<g>
</g>
<g>
</g>
<g>
</g>
<g>
</g>
<g>
</g>
</svg><style>@media (prefers-color-scheme: light) { :root { filter: none; } }
@media (prefers-color-scheme: dark) { :root { filter: contrast(0.3846153846153846) brightness(4.5); } }
</style></svg>